<?xml version="1.0" encoding="utf-8"?>
<!-- Generator: Adobe Illustrator 27.5.0, SVG Export Plug-In . SVG Version: 6.00 Build 0)  -->
<svg version="1.1" xmlns="http://www.w3.org/2000/svg" xmlns:xlink="http://www.w3.org/1999/xlink" x="0px" y="0px"
	 viewBox="0 0 750 500" style="enable-background:new 0 0 750 500;" xml:space="preserve">
<g id="BACKGROUND">
	<rect x="-0.12" y="-0.08" style="fill-rule:evenodd;clip-rule:evenodd;fill:#97C4ED;" width="750.241" height="500.16"/>
</g>
<g id="OBJECTS">
	<g>
		
			<linearGradient id="SVGID_1_" gradientUnits="userSpaceOnUse" x1="375.0002" y1="222.3863" x2="375.0002" y2="-0.0803" gradientTransform="matrix(-1 0 0 -1 750.0005 222.3059)">
			<stop  offset="0.2333" style="stop-color:#EBF5FF;stop-opacity:0"/>
			<stop  offset="1" style="stop-color:#EBF5FF"/>
		</linearGradient>
		<rect x="-0.12" y="-0.08" style="fill-rule:evenodd;clip-rule:evenodd;fill:url(#SVGID_1_);" width="750.24" height="222.467"/>
		<path style="fill-rule:evenodd;clip-rule:evenodd;fill:#EBF5FF;" d="M663.747,165.671c11.864-28.746,63.412-44.622,86.373-2.12
			v58.836H-0.12v-81.695c21.296-13.871,54.576-13.527,70.862,20.357c5.915-6.218,15.871-3.494,21.61,1.915
			c23.225-14.428,61.012-6.243,66.581,19.542c8.604-2.471,18.036-1.752,22.583,5.105c16.811-9.518,56.622-6.497,56.399,7.437
			c0,0.038-0.017,0.075-0.019,0.113c11.525-3.048,24.444-0.68,31.765,8.818c12.876-31.197,69.773-48.133,93.293,0.803
			c5.807-6.104,15.282-4.093,21.496,0.783c12.323-7.705,30.404-7.514,39.438,4.206c10.167-24.634,49.478-39.816,74.968-16.909
			c8.188-7.82,25.673-11.951,37.871-7.491c11.393-22.362,42.253-26.925,62.453-16.935c5.216-1.765,11.542-1.531,16.174,1.709
			C625.296,154.628,652.075,150.529,663.747,165.671z"/>
		<rect x="-0.12" y="222.387" style="fill-rule:evenodd;clip-rule:evenodd;fill:#82ACD4;" width="750.241" height="277.693"/>
		<path style="fill-rule:evenodd;clip-rule:evenodd;fill:#FFFFFF;" d="M663.747,279.103c11.864,28.746,63.412,44.622,86.373,2.12
			v-58.836H-0.12v81.695c21.296,13.871,54.576,13.527,70.862-20.357c5.915,6.217,15.871,3.494,21.61-1.915
			c23.225,14.428,61.012,6.243,66.581-19.542c8.604,2.471,18.036,1.752,22.583-5.105c16.811,9.518,56.622,6.497,56.399-7.437
			c0-0.038-0.017-0.075-0.019-0.113c11.525,3.048,24.444,0.68,31.765-8.818c12.876,31.197,69.773,48.133,93.293-0.803
			c5.807,6.104,15.282,4.093,21.496-0.783c12.323,7.705,30.404,7.514,39.438-4.206c10.167,24.635,49.478,39.816,74.968,16.909
			c8.188,7.82,25.673,11.951,37.871,7.491c11.393,22.362,42.253,26.925,62.453,16.935c5.216,1.765,11.542,1.531,16.174-1.709
			C625.296,290.146,652.075,294.245,663.747,279.103z"/>
		
			<rect x="-0.12" y="222.387" style="opacity:0.7;fill-rule:evenodd;clip-rule:evenodd;fill:#97C4ED;" width="750.241" height="277.693"/>
		<g>
			<path style="fill-rule:evenodd;clip-rule:evenodd;fill:#688CAD;" d="M750.12,288.465c-57.422,4.225-144.821-45.83-199.355-47.17
				c-17.177-0.422-69.641-0.456-121.574-18.909H750.12V288.465z"/>
			<g>
				<g>
					<polygon style="fill-rule:evenodd;clip-rule:evenodd;fill:#688CAD;" points="665.75,269.843 700.977,269.843 683.363,297.591 
											"/>
					<polygon style="fill-rule:evenodd;clip-rule:evenodd;fill:#688CAD;" points="668.361,282.487 698.365,282.487 683.363,306.12 
											"/>
					<polygon style="fill-rule:evenodd;clip-rule:evenodd;fill:#688CAD;" points="672.493,296.328 694.233,296.328 683.363,313.452 
											"/>
					<polygon style="fill-rule:evenodd;clip-rule:evenodd;fill:#688CAD;" points="676.646,310.185 690.08,310.185 683.363,320.768 
											"/>
				</g>
				<g>
					<polygon style="fill-rule:evenodd;clip-rule:evenodd;fill:#688CAD;" points="651.249,265.578 675.487,265.578 663.368,284.67 
											"/>
					<polygon style="fill-rule:evenodd;clip-rule:evenodd;fill:#688CAD;" points="653.045,274.278 673.69,274.278 663.368,290.539 
											"/>
					<polygon style="fill-rule:evenodd;clip-rule:evenodd;fill:#688CAD;" points="655.889,283.802 670.846,283.802 663.368,295.584 
											"/>
					<polygon style="fill-rule:evenodd;clip-rule:evenodd;fill:#688CAD;" points="658.746,293.336 667.99,293.336 663.368,300.617 
											"/>
				</g>
				<g>
					<polygon style="fill-rule:evenodd;clip-rule:evenodd;fill:#688CAD;" points="601.347,247.238 636.573,247.238 618.96,274.986 
											"/>
					<polygon style="fill-rule:evenodd;clip-rule:evenodd;fill:#688CAD;" points="603.958,259.882 633.962,259.882 618.96,283.515 
											"/>
					<polygon style="fill-rule:evenodd;clip-rule:evenodd;fill:#688CAD;" points="608.09,273.723 629.829,273.723 618.96,290.847 
											"/>
					<polygon style="fill-rule:evenodd;clip-rule:evenodd;fill:#688CAD;" points="612.242,287.58 625.677,287.58 618.96,298.163 
											"/>
				</g>
				<g>
					<polygon style="fill-rule:evenodd;clip-rule:evenodd;fill:#688CAD;" points="537.797,237.002 562.035,237.002 549.916,256.094 
											"/>
					<polygon style="fill-rule:evenodd;clip-rule:evenodd;fill:#688CAD;" points="539.594,245.702 560.238,245.702 549.916,261.963 
											"/>
					<polygon style="fill-rule:evenodd;clip-rule:evenodd;fill:#688CAD;" points="542.437,255.225 557.395,255.225 549.916,267.008 
											"/>
					<polygon style="fill-rule:evenodd;clip-rule:evenodd;fill:#688CAD;" points="545.294,264.76 554.538,264.76 549.916,272.041 
											"/>
				</g>
				<g>
					<polygon style="fill-rule:evenodd;clip-rule:evenodd;fill:#688CAD;" points="507.514,237.002 542.741,237.002 525.128,264.75 
											"/>
					<polygon style="fill-rule:evenodd;clip-rule:evenodd;fill:#688CAD;" points="510.126,249.645 540.13,249.645 525.128,273.279 
											"/>
					<polygon style="fill-rule:evenodd;clip-rule:evenodd;fill:#688CAD;" points="514.258,263.487 535.997,263.487 525.128,280.611 
											"/>
					<polygon style="fill-rule:evenodd;clip-rule:evenodd;fill:#688CAD;" points="518.41,277.344 531.845,277.344 525.128,287.927 
											"/>
				</g>
				<g>
					<polygon style="fill-rule:evenodd;clip-rule:evenodd;fill:#688CAD;" points="732.975,287.072 748.396,287.072 740.685,299.219 
											"/>
					<polygon style="fill-rule:evenodd;clip-rule:evenodd;fill:#688CAD;" points="734.118,292.607 747.252,292.607 740.685,302.953 
											"/>
					<polygon style="fill-rule:evenodd;clip-rule:evenodd;fill:#688CAD;" points="735.927,298.666 745.444,298.666 740.685,306.162 
											"/>
					<polygon style="fill-rule:evenodd;clip-rule:evenodd;fill:#688CAD;" points="737.745,304.732 743.626,304.732 740.685,309.365 
											"/>
				</g>
			</g>
		</g>
		<g>
			<path style="fill-rule:evenodd;clip-rule:evenodd;fill:#688CAD;" d="M-0.12,297.036c57.422,4.773,94.965-40.619,139.471-48.955
				c32.255-6.041,108.614,3.566,181.458-25.695H-0.12V297.036z"/>
			<g>
				<g>
					<polygon style="fill-rule:evenodd;clip-rule:evenodd;fill:#688CAD;" points="51.315,269.471 86.542,269.471 68.929,297.219 
											"/>
					<polygon style="fill-rule:evenodd;clip-rule:evenodd;fill:#688CAD;" points="53.926,282.115 83.93,282.115 68.929,305.748 
											"/>
					<polygon style="fill-rule:evenodd;clip-rule:evenodd;fill:#688CAD;" points="58.059,295.956 79.798,295.956 68.929,313.08 
											"/>
					<polygon style="fill-rule:evenodd;clip-rule:evenodd;fill:#688CAD;" points="62.211,309.813 75.646,309.813 68.929,320.396 
											"/>
				</g>
				<g>
					<polygon style="fill-rule:evenodd;clip-rule:evenodd;fill:#688CAD;" points="79.27,260.853 103.508,260.853 91.389,279.945 
											"/>
					<polygon style="fill-rule:evenodd;clip-rule:evenodd;fill:#688CAD;" points="81.067,269.553 101.711,269.553 91.389,285.814 
											"/>
					<polygon style="fill-rule:evenodd;clip-rule:evenodd;fill:#688CAD;" points="83.91,279.076 98.868,279.076 91.389,290.859 
											"/>
					<polygon style="fill-rule:evenodd;clip-rule:evenodd;fill:#688CAD;" points="86.767,288.611 96.011,288.611 91.389,295.892 
											"/>
				</g>
				<g>
					<polygon style="fill-rule:evenodd;clip-rule:evenodd;fill:#688CAD;" points="14.069,293.025 33.646,293.025 23.858,308.445 
											"/>
					<polygon style="fill-rule:evenodd;clip-rule:evenodd;fill:#688CAD;" points="15.521,300.051 32.195,300.051 23.858,313.185 
											"/>
					<polygon style="fill-rule:evenodd;clip-rule:evenodd;fill:#688CAD;" points="17.817,307.743 29.898,307.743 23.858,317.26 
											"/>
					<polygon style="fill-rule:evenodd;clip-rule:evenodd;fill:#688CAD;" points="20.125,315.445 27.591,315.445 23.858,321.326 
											"/>
				</g>
				<g>
					<polygon style="fill-rule:evenodd;clip-rule:evenodd;fill:#688CAD;" points="248.055,236.704 265.245,236.704 256.65,250.245 
											"/>
					<polygon style="fill-rule:evenodd;clip-rule:evenodd;fill:#688CAD;" points="249.329,242.874 263.97,242.874 256.65,254.407 
											"/>
					<polygon style="fill-rule:evenodd;clip-rule:evenodd;fill:#688CAD;" points="251.345,249.628 261.954,249.628 256.65,257.985 
											"/>
					<polygon style="fill-rule:evenodd;clip-rule:evenodd;fill:#688CAD;" points="253.372,256.391 259.928,256.391 256.65,261.555 
											"/>
				</g>
				<g>
					<polygon style="fill-rule:evenodd;clip-rule:evenodd;fill:#688CAD;" points="237.084,239.264 250.397,239.264 243.741,249.75 
											"/>
					<polygon style="fill-rule:evenodd;clip-rule:evenodd;fill:#688CAD;" points="238.071,244.042 249.41,244.042 243.74,252.973 
											"/>
					<polygon style="fill-rule:evenodd;clip-rule:evenodd;fill:#688CAD;" points="239.633,249.273 247.848,249.273 243.74,255.744 
											"/>
					<polygon style="fill-rule:evenodd;clip-rule:evenodd;fill:#688CAD;" points="241.202,254.509 246.279,254.509 243.74,258.509 
											"/>
				</g>
			</g>
		</g>
		<g>
			<path style="fill-rule:evenodd;clip-rule:evenodd;fill:#486E91;" d="M523.729,263.966l-5.258,6.147l8.661,0.628l-11.092,2.52
				c-1.793,0.407-5.41-0.287-11.124-2.155c-6.399-1.715-13.321-4.351-15.358-5.633c-3.811-2.398,11.169-5.49,11.169-5.49
				S522.919,257.646,523.729,263.966z"/>
			<path style="fill-rule:evenodd;clip-rule:evenodd;fill:#9CC4EA;" d="M502.071,267.461l14.947,0.858
				c1.003-0.958,2.081-2.082,2.925-3.134l-11.807,0.626C506.043,265.922,503.415,266.556,502.071,267.461z"/>
			<path style="fill-rule:evenodd;clip-rule:evenodd;fill:#486E91;" d="M523.724,263.972c-4.467,0.307-9.061,0.579-13.428,0.804
				c-8.767,0.452-16.628,0.719-20.724,0.702h-0.001h-0.005c0.234,0.147,0.533,0.312,0.886,0.491
				c4.295-0.02,11.692-0.28,19.869-0.702c4.219-0.218,8.643-0.478,12.955-0.771L523.724,263.972z"/>
			<path style="fill-rule:evenodd;clip-rule:evenodd;fill:#486E91;" d="M534.782,263.314c0.109-0.081,0.131-0.236,0.05-0.344
				c-0.081-0.109-0.236-0.131-0.344-0.05l-0.243,0.182c-1.722,1.286-3.267,2.44-4.4,2.51l-0.007,0v0
				c-7.086,0.625-14.462,1.228-21.824,1.666c-7.378,0.439-14.757,0.715-21.842,0.686c-0.136,0-0.246,0.109-0.247,0.244
				c0,0.136,0.109,0.246,0.245,0.246c7.106,0.029,14.494-0.247,21.873-0.686c7.395-0.44,14.767-1.042,21.837-1.666v-0.001
				c1.282-0.083,2.879-1.276,4.659-2.606L534.782,263.314z"/>
			<path style="fill-rule:evenodd;clip-rule:evenodd;fill:#486E91;" d="M528.374,263.733c0.047-0.127-0.019-0.269-0.146-0.316
				c-0.127-0.047-0.269,0.019-0.315,0.146L527.017,266c-0.047,0.128,0.019,0.269,0.146,0.316c0.127,0.047,0.269-0.019,0.315-0.146
				L528.374,263.733z"/>
			<path style="fill-rule:evenodd;clip-rule:evenodd;fill:#486E91;" d="M545.254,255.32c1.583,0,1.959,1.126,0.731,2.041
				l-5.679,4.236c-1.85,1.38-4.407,1.442-5.67,1.52l-0.781,0.069h0c-15.323,1.338-36.535,2.319-44.296,2.287
				c-0.96,0.004-1.761-0.004-2.371-0.025c0.128-0.552,0.451-1.216,0.914-1.937c0.252-0.001,0.528-0.005,0.823-0.009
				c1.925-2.998,6.262-6.992,9.14-8.182H545.254z"/>
			<path style="fill-rule:evenodd;clip-rule:evenodd;fill:#486E91;" d="M546.328,255.578c0.19,0.124,0.312,0.286,0.361,0.47
				c-17.372,1.095-34.95,1.44-52.356,1.657c0.055-0.039,0.174-0.148,0.24-0.194C511.653,257.291,529.281,256.64,546.328,255.578z"/>
			<path style="fill-rule:evenodd;clip-rule:evenodd;fill:#486E91;" d="M488.92,263.507c14.02-0.08,34.522-1.184,48.519-2.169
				l0.287-0.514c-14.09,0.996-34.633,2.443-48.746,2.524L488.92,263.507z"/>
			<path style="fill-rule:evenodd;clip-rule:evenodd;fill:#486E91;" d="M520.226,262.413c3.388-0.204,13.719-0.83,17.213-1.076
				l1.74-1.651l-17.489,1.317L520.226,262.413z"/>
			<path style="fill-rule:evenodd;clip-rule:evenodd;fill:#486E91;" d="M507.661,262.3l3.666-0.163
				c0.247-0.011,0.449-0.223,0.449-0.47v0c0-0.248-0.202-0.441-0.449-0.43l-3.666,0.163c-0.247,0.011-0.45,0.222-0.45,0.47v0
				C507.211,262.118,507.414,262.311,507.661,262.3z"/>
			<path style="fill-rule:evenodd;clip-rule:evenodd;fill:#486E91;" d="M500.563,262.581l3.666-0.141
				c0.247-0.009,0.45-0.22,0.45-0.467v-0.001c0-0.247-0.202-0.442-0.45-0.433l-3.666,0.141c-0.247,0.009-0.45,0.22-0.45,0.467v0.001
				C500.114,262.396,500.316,262.59,500.563,262.581z"/>
			<path style="fill-rule:evenodd;clip-rule:evenodd;fill:#486E91;" d="M493.695,262.68l3.665-0.06
				c0.247-0.004,0.45-0.21,0.45-0.457v-0.001c0-0.248-0.202-0.447-0.45-0.443l-3.665,0.06c-0.248,0.004-0.45,0.209-0.45,0.457v0.001
				C493.245,262.485,493.447,262.684,493.695,262.68z"/>
			
				<rect x="527.858" y="260.934" transform="matrix(0.6642 -0.7476 0.7476 0.6642 -17.3292 483.5253)" style="fill-rule:evenodd;clip-rule:evenodd;fill:#486E91;" width="3.282" height="0.233"/>
			<polygon style="fill-rule:evenodd;clip-rule:evenodd;fill:#486E91;" points="527.131,270.741 531.594,275.935 528.351,275.888 
				523.476,270.476 			"/>
			<path style="fill-rule:evenodd;clip-rule:evenodd;fill:#486E91;" d="M518.87,269.647l-0.397,0.464l-21.886-1.624
				c-0.577-0.207-1.136-0.414-1.671-0.617L518.87,269.647L518.87,269.647z M520.337,270.249l0.381,0.028v0L520.337,270.249z"/>
			<path style="fill-rule:evenodd;clip-rule:evenodd;fill:#486E91;" d="M488.64,265.534c0.047-0.128-0.019-0.269-0.146-0.316
				c-0.127-0.047-0.269,0.019-0.316,0.146l-1.015,2.762c-0.047,0.128,0.019,0.269,0.146,0.316c0.128,0.047,0.269-0.019,0.316-0.146
				L488.64,265.534z"/>
			<path style="fill-rule:evenodd;clip-rule:evenodd;fill:#688CAD;" d="M495.972,265.709c0.047-0.127-0.019-0.269-0.146-0.315
				c-0.128-0.047-0.269,0.019-0.316,0.146l-0.826,2.245c-0.047,0.127,0.019,0.269,0.146,0.315c0.128,0.047,0.269-0.019,0.316-0.146
				L495.972,265.709z"/>
			<path style="fill-rule:evenodd;clip-rule:evenodd;fill:#486E91;" d="M504.103,265.399c0.047-0.128-0.019-0.269-0.146-0.316
				c-0.128-0.047-0.269,0.019-0.316,0.146l-0.913,2.483c-0.047,0.128,0.019,0.269,0.146,0.316c0.127,0.047,0.269-0.019,0.316-0.146
				L504.103,265.399z"/>
			<path style="fill-rule:evenodd;clip-rule:evenodd;fill:#486E91;" d="M512.146,264.939c0.047-0.128-0.019-0.269-0.146-0.316
				c-0.127-0.047-0.269,0.019-0.316,0.146l-0.913,2.483c-0.047,0.127,0.019,0.269,0.146,0.316c0.128,0.047,0.269-0.019,0.316-0.146
				L512.146,264.939z"/>
			<path style="fill-rule:evenodd;clip-rule:evenodd;fill:#486E91;" d="M520.443,264.535c0.047-0.128-0.019-0.269-0.146-0.316
				c-0.128-0.047-0.269,0.019-0.316,0.146l-0.84,2.284c-0.047,0.128,0.019,0.269,0.146,0.316c0.127,0.047,0.269-0.019,0.315-0.146
				L520.443,264.535z"/>
			<path style="fill-rule:evenodd;clip-rule:evenodd;fill:#9CC4EA;" d="M509.551,271.713l-8.149-2.401l13.063,1.262
				C513.247,271.626,510.742,272.064,509.551,271.713z"/>
			<path style="fill-rule:evenodd;clip-rule:evenodd;fill:#486E91;" d="M516.403,271.573c0.21,0,0.382-0.171,0.382-0.382
				c0-0.21-0.171-0.382-0.382-0.382c-0.21,0-0.381,0.172-0.381,0.382C516.022,271.402,516.193,271.573,516.403,271.573z"/>
			<polygon style="fill-rule:evenodd;clip-rule:evenodd;fill:#486E91;" points="528.535,274.779 531.581,278.323 530.474,278.307 
				527.147,274.615 			"/>
			<path style="fill-rule:evenodd;clip-rule:evenodd;fill:#486E91;" d="M530.525,279.68h1.943c0.227,0,0.412-0.185,0.412-0.412
				v-0.56c0-0.227-0.185-0.412-0.412-0.412h-1.943c-0.227,0-0.412,0.185-0.412,0.412v0.56
				C530.113,279.495,530.298,279.68,530.525,279.68z"/>
			<rect x="530.113" y="278.814" style="fill-rule:evenodd;clip-rule:evenodd;fill:#486E91;" width="2.767" height="0.349"/>
			<path style="fill-rule:evenodd;clip-rule:evenodd;fill:#486E91;" d="M494.743,265.4c-2.069,0.053-3.832,0.078-5.186,0.072
				c-0.96,0.004-1.761-0.004-2.371-0.025c0.128-0.552,0.451-1.216,0.914-1.937c0.252-0.001,0.528-0.005,0.823-0.009
				c1.925-2.998,6.262-6.992,9.14-8.182h7.545c-2.878,1.189-7.214,5.184-9.14,8.182c-0.295,0.004-0.57,0.007-0.823,0.009
				C495.196,264.211,494.878,264.857,494.743,265.4z"/>
			<path style="fill-rule:evenodd;clip-rule:evenodd;fill:#486E91;" d="M493.695,262.68l3.382-0.055
				c0.19-0.254,0.392-0.513,0.606-0.773c-0.082-0.083-0.196-0.134-0.323-0.132l-3.665,0.06c-0.247,0.004-0.45,0.21-0.45,0.457v0
				C493.245,262.485,493.448,262.684,493.695,262.68z"/>
			<path style="fill-rule:evenodd;clip-rule:evenodd;fill:#486E91;" d="M488.92,263.507c2.377-0.014,4.939-0.057,7.625-0.124
				c0.04-0.062,0.082-0.124,0.124-0.186c-2.691,0.084-5.26,0.137-7.646,0.151c-0.034,0.052-0.068,0.103-0.1,0.154h-0.001
				L488.92,263.507z"/>
			<path style="fill-rule:evenodd;clip-rule:evenodd;fill:#486E91;" d="M502.01,257.599c-2.562,0.04-5.121,0.074-7.677,0.106h0
				c0.023-0.016,0.057-0.045,0.095-0.077l0.004-0.004l0.142-0.114c2.559-0.033,5.129-0.076,7.708-0.128
				C502.192,257.454,502.102,257.526,502.01,257.599z"/>
		</g>
		
			<linearGradient id="SVGID_00000012446178860832333150000015673804008124240007_" gradientUnits="userSpaceOnUse" x1="375.0002" y1="444.8527" x2="375.0002" y2="136.9078">
			<stop  offset="0.4056" style="stop-color:#EBF5FF;stop-opacity:0"/>
			<stop  offset="0.928" style="stop-color:#EBF5FF"/>
		</linearGradient>
		
			<rect x="-0.12" y="222.386" style="fill-rule:evenodd;clip-rule:evenodd;fill:url(#SVGID_00000012446178860832333150000015673804008124240007_);" width="750.24" height="222.467"/>
		<g>
			<path style="fill-rule:evenodd;clip-rule:evenodd;fill:#688CAD;" d="M-0.12,147.737c57.422-4.773,94.965,40.619,139.471,48.955
				c32.255,6.041,108.614-3.566,181.458,25.695H-0.12V147.737z"/>
			<g>
				<g>
					<polygon style="fill-rule:evenodd;clip-rule:evenodd;fill:#688CAD;" points="51.315,175.303 86.542,175.303 68.929,147.555 
											"/>
					<polygon style="fill-rule:evenodd;clip-rule:evenodd;fill:#688CAD;" points="53.926,162.659 83.93,162.659 68.929,139.026 
											"/>
					<polygon style="fill-rule:evenodd;clip-rule:evenodd;fill:#688CAD;" points="58.059,148.818 79.798,148.818 68.929,131.694 
											"/>
					<polygon style="fill-rule:evenodd;clip-rule:evenodd;fill:#688CAD;" points="62.211,134.961 75.646,134.961 68.929,124.378 
											"/>
				</g>
				<g>
					<polygon style="fill-rule:evenodd;clip-rule:evenodd;fill:#688CAD;" points="79.27,183.921 103.508,183.921 91.389,164.829 
											"/>
					<polygon style="fill-rule:evenodd;clip-rule:evenodd;fill:#688CAD;" points="81.067,175.221 101.711,175.221 91.389,158.96 
											"/>
					<polygon style="fill-rule:evenodd;clip-rule:evenodd;fill:#688CAD;" points="83.91,165.697 98.868,165.697 91.389,153.915 
											"/>
					<polygon style="fill-rule:evenodd;clip-rule:evenodd;fill:#688CAD;" points="86.767,156.163 96.011,156.163 91.389,148.881 
											"/>
				</g>
				<g>
					<polygon style="fill-rule:evenodd;clip-rule:evenodd;fill:#688CAD;" points="14.069,151.749 33.646,151.749 23.858,136.329 
											"/>
					<polygon style="fill-rule:evenodd;clip-rule:evenodd;fill:#688CAD;" points="15.521,144.723 32.195,144.723 23.858,131.588 
											"/>
					<polygon style="fill-rule:evenodd;clip-rule:evenodd;fill:#688CAD;" points="17.817,137.03 29.898,137.03 23.858,127.514 					
						"/>
					<polygon style="fill-rule:evenodd;clip-rule:evenodd;fill:#688CAD;" points="20.125,129.329 27.591,129.329 23.858,123.448 
											"/>
				</g>
				<g>
					<polygon style="fill-rule:evenodd;clip-rule:evenodd;fill:#688CAD;" points="248.055,208.07 265.245,208.07 256.65,194.529 
											"/>
					<polygon style="fill-rule:evenodd;clip-rule:evenodd;fill:#688CAD;" points="249.329,201.9 263.97,201.9 256.65,190.367 					
						"/>
					<polygon style="fill-rule:evenodd;clip-rule:evenodd;fill:#688CAD;" points="251.345,195.145 261.954,195.145 256.65,186.789 
											"/>
					<polygon style="fill-rule:evenodd;clip-rule:evenodd;fill:#688CAD;" points="253.372,188.383 259.928,188.383 256.65,183.219 
											"/>
				</g>
				<g>
					<polygon style="fill-rule:evenodd;clip-rule:evenodd;fill:#688CAD;" points="237.084,205.51 250.397,205.51 243.741,195.024 
											"/>
					<polygon style="fill-rule:evenodd;clip-rule:evenodd;fill:#688CAD;" points="238.071,200.732 249.41,200.732 243.74,191.801 
											"/>
					<polygon style="fill-rule:evenodd;clip-rule:evenodd;fill:#688CAD;" points="239.633,195.501 247.848,195.501 243.74,189.03 
											"/>
					<polygon style="fill-rule:evenodd;clip-rule:evenodd;fill:#688CAD;" points="241.202,190.264 246.279,190.264 243.74,186.265 
											"/>
				</g>
			</g>
		</g>
		<g>
			<path style="fill-rule:evenodd;clip-rule:evenodd;fill:#688CAD;" d="M750.12,156.309c-57.422-4.225-144.821,45.83-199.355,47.17
				c-17.177,0.422-69.641,0.456-121.574,18.908H750.12V156.309z"/>
			<g>
				<g>
					<polygon style="fill-rule:evenodd;clip-rule:evenodd;fill:#688CAD;" points="665.75,174.931 700.977,174.931 683.363,147.183 
											"/>
					<polygon style="fill-rule:evenodd;clip-rule:evenodd;fill:#688CAD;" points="668.361,162.287 698.365,162.287 683.363,138.654 
											"/>
					<polygon style="fill-rule:evenodd;clip-rule:evenodd;fill:#688CAD;" points="672.493,148.446 694.233,148.446 683.363,131.322 
											"/>
					<polygon style="fill-rule:evenodd;clip-rule:evenodd;fill:#688CAD;" points="676.646,134.589 690.08,134.589 683.363,124.006 
											"/>
				</g>
				<g>
					<polygon style="fill-rule:evenodd;clip-rule:evenodd;fill:#688CAD;" points="651.249,179.196 675.487,179.196 663.368,160.104 
											"/>
					<polygon style="fill-rule:evenodd;clip-rule:evenodd;fill:#688CAD;" points="653.045,170.496 673.69,170.496 663.368,154.235 
											"/>
					<polygon style="fill-rule:evenodd;clip-rule:evenodd;fill:#688CAD;" points="655.889,160.972 670.846,160.972 663.368,149.19 
											"/>
					<polygon style="fill-rule:evenodd;clip-rule:evenodd;fill:#688CAD;" points="658.746,151.438 667.99,151.438 663.368,144.156 
											"/>
				</g>
				<g>
					<polygon style="fill-rule:evenodd;clip-rule:evenodd;fill:#688CAD;" points="601.347,197.536 636.573,197.536 618.96,169.788 
											"/>
					<polygon style="fill-rule:evenodd;clip-rule:evenodd;fill:#688CAD;" points="603.958,184.892 633.962,184.892 618.96,161.259 
											"/>
					<polygon style="fill-rule:evenodd;clip-rule:evenodd;fill:#688CAD;" points="608.09,171.051 629.829,171.051 618.96,153.927 
											"/>
					<polygon style="fill-rule:evenodd;clip-rule:evenodd;fill:#688CAD;" points="612.242,157.194 625.677,157.194 618.96,146.611 
											"/>
				</g>
				<g>
					<polygon style="fill-rule:evenodd;clip-rule:evenodd;fill:#688CAD;" points="537.797,207.772 562.035,207.772 549.916,188.68 
											"/>
					<polygon style="fill-rule:evenodd;clip-rule:evenodd;fill:#688CAD;" points="539.594,199.072 560.238,199.072 549.916,182.811 
											"/>
					<polygon style="fill-rule:evenodd;clip-rule:evenodd;fill:#688CAD;" points="542.437,189.548 557.395,189.548 549.916,177.766 
											"/>
					<polygon style="fill-rule:evenodd;clip-rule:evenodd;fill:#688CAD;" points="545.294,180.014 554.538,180.014 549.916,172.732 
											"/>
				</g>
				<g>
					<polygon style="fill-rule:evenodd;clip-rule:evenodd;fill:#688CAD;" points="507.514,207.772 542.741,207.772 525.128,180.024 
											"/>
					<polygon style="fill-rule:evenodd;clip-rule:evenodd;fill:#688CAD;" points="510.126,195.128 540.13,195.128 525.128,171.495 
											"/>
					<polygon style="fill-rule:evenodd;clip-rule:evenodd;fill:#688CAD;" points="514.258,181.287 535.997,181.287 525.128,164.163 
											"/>
					<polygon style="fill-rule:evenodd;clip-rule:evenodd;fill:#688CAD;" points="518.41,167.43 531.845,167.43 525.128,156.847 
											"/>
				</g>
				<g>
					<polygon style="fill-rule:evenodd;clip-rule:evenodd;fill:#688CAD;" points="732.975,157.701 748.396,157.701 740.685,145.555 
											"/>
					<polygon style="fill-rule:evenodd;clip-rule:evenodd;fill:#688CAD;" points="734.118,152.167 747.252,152.167 740.685,141.821 
											"/>
					<polygon style="fill-rule:evenodd;clip-rule:evenodd;fill:#688CAD;" points="735.927,146.108 745.444,146.108 740.685,138.612 
											"/>
					<polygon style="fill-rule:evenodd;clip-rule:evenodd;fill:#688CAD;" points="737.745,140.042 743.626,140.042 740.685,135.409 
											"/>
				</g>
			</g>
		</g>
		<path style="fill-rule:evenodd;clip-rule:evenodd;fill:#486E91;" d="M750.12,327.758
			c-160.555-14.845-271.367,21.439-317.165,19.388c-25.754-1.153-184.692-33.168-433.076-19.388V475.4H750.12V327.758z"/>
		<g>
			<polygon style="fill-rule:evenodd;clip-rule:evenodd;fill:#486E91;" points="536.117,342.32 594.257,342.32 565.187,296.524 			
				"/>
			<polygon style="fill-rule:evenodd;clip-rule:evenodd;fill:#486E91;" points="540.427,321.452 589.947,321.452 565.187,282.446 
							"/>
			<polygon style="fill-rule:evenodd;clip-rule:evenodd;fill:#486E91;" points="547.247,298.608 583.127,298.608 565.187,270.346 
							"/>
			<polygon style="fill-rule:evenodd;clip-rule:evenodd;fill:#486E91;" points="554.1,275.738 576.274,275.738 565.187,258.272 			
				"/>
		</g>
		<g>
			<polygon style="fill-rule:evenodd;clip-rule:evenodd;fill:#486E91;" points="611.987,331.351 687.495,331.351 649.741,271.874 
							"/>
			<polygon style="fill-rule:evenodd;clip-rule:evenodd;fill:#486E91;" points="617.584,304.25 681.897,304.25 649.741,253.592 			
				"/>
			<polygon style="fill-rule:evenodd;clip-rule:evenodd;fill:#486E91;" points="626.442,274.581 673.039,274.581 649.741,237.877 
							"/>
			<polygon style="fill-rule:evenodd;clip-rule:evenodd;fill:#486E91;" points="635.342,244.879 664.139,244.879 649.741,222.195 
							"/>
		</g>
		<g>
			<polygon style="fill-rule:evenodd;clip-rule:evenodd;fill:#486E91;" points="153.114,331.35 211.254,331.35 182.184,285.554 			
				"/>
			<polygon style="fill-rule:evenodd;clip-rule:evenodd;fill:#486E91;" points="157.424,310.483 206.943,310.483 182.184,271.477 
							"/>
			<polygon style="fill-rule:evenodd;clip-rule:evenodd;fill:#486E91;" points="164.244,287.639 200.123,287.639 182.184,259.377 
							"/>
			<polygon style="fill-rule:evenodd;clip-rule:evenodd;fill:#486E91;" points="171.097,264.769 193.271,264.769 182.184,247.303 
							"/>
		</g>
		<g>
			<polygon style="fill-rule:evenodd;clip-rule:evenodd;fill:#486E91;" points="75.417,337.749 150.925,337.749 113.171,278.273 			
				"/>
			<polygon style="fill-rule:evenodd;clip-rule:evenodd;fill:#486E91;" points="81.014,310.648 145.327,310.648 113.171,259.991 			
				"/>
			<polygon style="fill-rule:evenodd;clip-rule:evenodd;fill:#486E91;" points="89.871,280.979 136.469,280.979 113.171,244.275 			
				"/>
			<polygon style="fill-rule:evenodd;clip-rule:evenodd;fill:#486E91;" points="98.772,251.277 127.569,251.277 113.171,228.594 			
				"/>
		</g>
		<path style="fill-rule:evenodd;clip-rule:evenodd;fill:#2C4359;" d="M-0.12,367.549c160.555-13.326,275.731,25.353,321.528,23.513
			c25.754-1.035,180.328-35.882,428.713-23.513V500.08H-0.12V367.549z"/>
		<g>
			<polygon style="fill-rule:evenodd;clip-rule:evenodd;fill:#2C4359;" points="547.885,382.54 654.075,382.54 600.98,298.895 			
				"/>
			<polygon style="fill-rule:evenodd;clip-rule:evenodd;fill:#2C4359;" points="555.757,344.427 646.202,344.427 600.98,273.184 			
				"/>
			<polygon style="fill-rule:evenodd;clip-rule:evenodd;fill:#2C4359;" points="568.214,302.702 633.745,302.702 600.98,251.084 			
				"/>
			<polygon style="fill-rule:evenodd;clip-rule:evenodd;fill:#2C4359;" points="580.73,260.931 621.229,260.931 600.98,229.031 			
				"/>
		</g>
		<g>
			<polygon style="fill-rule:evenodd;clip-rule:evenodd;fill:#2C4359;" points="104.668,382.54 190.075,382.54 147.372,315.265 			
				"/>
			<polygon style="fill-rule:evenodd;clip-rule:evenodd;fill:#2C4359;" points="110.999,351.885 183.744,351.885 147.372,294.586 
							"/>
			<polygon style="fill-rule:evenodd;clip-rule:evenodd;fill:#2C4359;" points="121.017,318.326 173.725,318.326 147.371,276.81 			
				"/>
			<polygon style="fill-rule:evenodd;clip-rule:evenodd;fill:#2C4359;" points="131.084,284.73 163.658,284.73 147.371,259.073 			
				"/>
		</g>
		<path style="fill-rule:evenodd;clip-rule:evenodd;fill:#EBF5FF;" d="M138.846,102.926c7.789-18.872,42.207-29.117,56.435,0.486
			c6.031-6.34,18.605,1.789,16.5,8.322c-5.105,15.849-119.951,16.58-120.528,0c-0.222-6.373,10.418-10.191,16.505-5.934
			C114.146,95.832,131.349,93.199,138.846,102.926z"/>
		<path style="fill-rule:evenodd;clip-rule:evenodd;fill:#EBF5FF;" d="M558.323,113.716c0.056,14.52,102.345,14.453,103.31,1.151
			c0.676-9.321-18.039-13.33-26.161-5.15c-2.999-9.56-14.202-13.207-20.401-8.645c-7.08-16.495-30.307-14.885-33.863,3.4
			C573.736,100.465,558.289,105.116,558.323,113.716z"/>
		<path style="fill-rule:evenodd;clip-rule:evenodd;fill:#EBF5FF;" d="M392.451,43.016c5.403-1.552,11.326-1.1,14.182,3.207
			c10.557-5.978,35.559-4.081,35.419,4.67c-0.211,13.211-125.976,16.268-126.737,0c-0.394-8.426,16.202-14.621,26.637-10.806
			C352.28,19.813,388.091,22.828,392.451,43.016z"/>
		<g>
			<polygon style="fill-rule:evenodd;clip-rule:evenodd;fill:#2C4359;" points="67.547,405.297 152.955,405.297 110.251,338.022 			
				"/>
			<polygon style="fill-rule:evenodd;clip-rule:evenodd;fill:#2C4359;" points="73.878,374.643 146.623,374.643 110.251,317.343 			
				"/>
			<polygon style="fill-rule:evenodd;clip-rule:evenodd;fill:#2C4359;" points="83.897,341.084 136.604,341.084 110.251,299.568 			
				"/>
			<polygon style="fill-rule:evenodd;clip-rule:evenodd;fill:#2C4359;" points="93.964,307.488 126.537,307.488 110.251,281.83 			
				"/>
		</g>
		<g>
			<defs>
				
					<rect id="SVGID_00000133506091541968186840000005557591810316190899_" x="-0.12" y="162.942" width="126.536" height="337.138"/>
			</defs>
			<clipPath id="SVGID_00000115490405894432637940000002220340075351799697_">
				<use xlink:href="#SVGID_00000133506091541968186840000005557591810316190899_"  style="overflow:visible;"/>
			</clipPath>
			<g style="clip-path:url(#SVGID_00000115490405894432637940000002220340075351799697_);">
				<g>
					<polygon style="fill-rule:evenodd;clip-rule:evenodd;fill:#486E91;" points="-29.704,356.031 45.804,356.031 8.05,296.555 
											"/>
					<polygon style="fill-rule:evenodd;clip-rule:evenodd;fill:#486E91;" points="-24.107,328.93 40.206,328.93 8.05,278.272 					
						"/>
					<polygon style="fill-rule:evenodd;clip-rule:evenodd;fill:#486E91;" points="-15.249,299.261 31.349,299.261 8.05,262.557 
											"/>
					<polygon style="fill-rule:evenodd;clip-rule:evenodd;fill:#486E91;" points="-6.349,269.559 22.449,269.559 8.05,246.876 					
						"/>
				</g>
				<g>
					<polygon style="fill-rule:evenodd;clip-rule:evenodd;fill:#2C4359;" points="-19.065,382.54 125.758,382.54 53.347,268.464 
											"/>
					<polygon style="fill-rule:evenodd;clip-rule:evenodd;fill:#2C4359;" points="-8.329,330.56 115.022,330.56 53.347,233.399 
											"/>
					<polygon style="fill-rule:evenodd;clip-rule:evenodd;fill:#2C4359;" points="8.659,273.655 98.033,273.655 53.346,203.257 
											"/>
					<polygon style="fill-rule:evenodd;clip-rule:evenodd;fill:#2C4359;" points="25.729,216.687 80.963,216.687 53.346,173.181 
											"/>
				</g>
				<g>
					<polygon style="fill-rule:evenodd;clip-rule:evenodd;fill:#2C4359;" points="-51.152,390.182 34.256,390.182 -8.448,322.907 
											"/>
					<polygon style="fill-rule:evenodd;clip-rule:evenodd;fill:#2C4359;" points="-44.821,359.528 27.924,359.528 -8.448,302.228 
											"/>
					<polygon style="fill-rule:evenodd;clip-rule:evenodd;fill:#2C4359;" points="-34.802,325.969 17.905,325.969 -8.449,284.452 
											"/>
					<polygon style="fill-rule:evenodd;clip-rule:evenodd;fill:#2C4359;" points="-24.736,292.372 7.838,292.372 -8.449,266.715 
											"/>
				</g>
				<g>
					<polygon style="fill-rule:evenodd;clip-rule:evenodd;fill:#17232E;" points="-89.431,567.491 122.458,567.491 16.513,400.588 
											"/>
					<polygon style="fill-rule:evenodd;clip-rule:evenodd;fill:#17232E;" points="-73.724,491.44 106.75,491.44 16.513,349.285 
											"/>
					<polygon style="fill-rule:evenodd;clip-rule:evenodd;fill:#17232E;" points="-48.868,408.183 81.893,408.183 16.513,305.185 
											"/>
					<polygon style="fill-rule:evenodd;clip-rule:evenodd;fill:#17232E;" points="-23.893,324.834 56.918,324.834 16.513,261.18 
											"/>
				</g>
				<g>
					<polygon style="fill-rule:evenodd;clip-rule:evenodd;fill:#17232E;" points="45.686,486.531 146.534,486.531 96.11,407.094 
											"/>
					<polygon style="fill-rule:evenodd;clip-rule:evenodd;fill:#17232E;" points="53.162,450.335 139.058,450.335 96.11,382.676 
											"/>
					<polygon style="fill-rule:evenodd;clip-rule:evenodd;fill:#17232E;" points="64.992,410.709 127.228,410.709 96.11,361.687 
											"/>
					<polygon style="fill-rule:evenodd;clip-rule:evenodd;fill:#17232E;" points="76.879,371.039 115.34,371.039 96.11,340.743 
											"/>
				</g>
			</g>
		</g>
		<g>
			<polygon style="fill-rule:evenodd;clip-rule:evenodd;fill:#2C4359;" points="597.883,406.824 683.291,406.824 640.587,339.549 
							"/>
			<polygon style="fill-rule:evenodd;clip-rule:evenodd;fill:#2C4359;" points="604.214,376.17 676.959,376.17 640.587,318.87 			
				"/>
			<polygon style="fill-rule:evenodd;clip-rule:evenodd;fill:#2C4359;" points="614.233,342.611 666.94,342.611 640.586,301.094 			
				"/>
			<polygon style="fill-rule:evenodd;clip-rule:evenodd;fill:#2C4359;" points="624.3,309.014 656.873,309.014 640.586,283.357 			
				"/>
		</g>
		<g>
			<defs>
				
					<rect id="SVGID_00000176744702544730932930000017833863091893996206_" x="623.585" y="162.942" width="126.536" height="337.138"/>
			</defs>
			<clipPath id="SVGID_00000021103328634321951880000001820326367223626124_">
				<use xlink:href="#SVGID_00000176744702544730932930000017833863091893996206_"  style="overflow:visible;"/>
			</clipPath>
			<g style="clip-path:url(#SVGID_00000021103328634321951880000001820326367223626124_);">
				<g>
					<polygon style="fill-rule:evenodd;clip-rule:evenodd;fill:#486E91;" points="699.74,346.891 775.248,346.891 737.494,287.414 
											"/>
					<polygon style="fill-rule:evenodd;clip-rule:evenodd;fill:#486E91;" points="705.337,319.79 769.65,319.79 737.494,269.132 
											"/>
					<polygon style="fill-rule:evenodd;clip-rule:evenodd;fill:#486E91;" points="714.194,290.121 760.792,290.121 737.494,253.416 
											"/>
					<polygon style="fill-rule:evenodd;clip-rule:evenodd;fill:#486E91;" points="723.095,260.419 751.892,260.419 737.494,237.735 
											"/>
				</g>
				<g>
					<polygon style="fill-rule:evenodd;clip-rule:evenodd;fill:#2C4359;" points="769.065,382.54 624.242,382.54 696.654,268.464 
											"/>
					<polygon style="fill-rule:evenodd;clip-rule:evenodd;fill:#2C4359;" points="758.33,330.56 634.979,330.56 696.654,233.399 
											"/>
					<polygon style="fill-rule:evenodd;clip-rule:evenodd;fill:#2C4359;" points="741.341,273.655 651.967,273.655 696.654,203.257 
											"/>
					<polygon style="fill-rule:evenodd;clip-rule:evenodd;fill:#2C4359;" points="724.271,216.687 669.037,216.687 696.654,173.181 
											"/>
				</g>
				<g>
					<polygon style="fill-rule:evenodd;clip-rule:evenodd;fill:#2C4359;" points="709.016,390.182 794.424,390.182 751.72,322.907 
											"/>
					<polygon style="fill-rule:evenodd;clip-rule:evenodd;fill:#2C4359;" points="715.348,359.528 788.093,359.528 751.72,302.228 
											"/>
					<polygon style="fill-rule:evenodd;clip-rule:evenodd;fill:#2C4359;" points="725.366,325.969 778.073,325.969 751.72,284.452 
											"/>
					<polygon style="fill-rule:evenodd;clip-rule:evenodd;fill:#2C4359;" points="735.433,292.372 768.006,292.372 751.72,266.715 
											"/>
				</g>
				<g>
					<polygon style="fill-rule:evenodd;clip-rule:evenodd;fill:#17232E;" points="629.619,591.391 856.532,591.391 743.075,412.655 
											"/>
					<polygon style="fill-rule:evenodd;clip-rule:evenodd;fill:#17232E;" points="646.44,509.949 839.709,509.949 743.075,357.714 
											"/>
					<polygon style="fill-rule:evenodd;clip-rule:evenodd;fill:#17232E;" points="673.058,420.789 813.091,420.789 743.075,310.488 
											"/>
					<polygon style="fill-rule:evenodd;clip-rule:evenodd;fill:#17232E;" points="699.804,331.53 786.344,331.53 743.075,263.363 
											"/>
				</g>
				<g>
					<polygon style="fill-rule:evenodd;clip-rule:evenodd;fill:#17232E;" points="625.105,482.624 702.821,482.624 663.963,421.409 
											"/>
					<polygon style="fill-rule:evenodd;clip-rule:evenodd;fill:#17232E;" points="630.865,454.731 697.059,454.731 663.963,402.591 
											"/>
					<polygon style="fill-rule:evenodd;clip-rule:evenodd;fill:#17232E;" points="639.982,424.194 687.943,424.194 663.963,386.417 
											"/>
					<polygon style="fill-rule:evenodd;clip-rule:evenodd;fill:#17232E;" points="649.143,393.624 678.782,393.624 663.963,370.277 
											"/>
				</g>
			</g>
		</g>
		<g>
			<g>
				<path style="fill-rule:evenodd;clip-rule:evenodd;fill:#688CAD;" d="M384.552,115.873c14.347,1.247,22.541,4.306,28.927,11.544
					c1.446-9.543,6.677-16.553,18.06-25.374c-11.952,6.89-17.751,11.97-20.144,18.295
					C405.957,116.317,398.331,115.189,384.552,115.873z"/>
				<path style="fill-rule:evenodd;clip-rule:evenodd;fill:#688CAD;" d="M488.704,93.122c-11.059-2.639-17.102-5.977-21.249-12.37
					c-2.236,7.284-7.134,12.151-17.046,17.719c10.132-3.994,15.249-7.288,17.852-11.95
					C472.041,90.291,477.865,92.057,488.704,93.122z"/>
				<path style="fill-rule:evenodd;clip-rule:evenodd;fill:#688CAD;" d="M401.915,81.136c11.182,2.056,17.392,5.074,21.867,11.241
					c1.852-7.391,6.488-12.508,16.095-18.587c-9.909,4.519-14.847,8.076-17.202,12.868C418.704,83.09,412.795,81.632,401.915,81.136
					z"/>
				<path style="fill-rule:evenodd;clip-rule:evenodd;fill:#688CAD;" d="M500.582,107.925c7.835,1.441,12.186,3.555,15.322,7.876
					c1.297-5.179,4.546-8.764,11.277-13.023c-6.943,3.166-10.403,5.658-12.053,9.016
					C512.346,109.295,508.206,108.273,500.582,107.925z"/>
			</g>
			<path style="fill-rule:evenodd;clip-rule:evenodd;fill:#688CAD;" d="M424.292,86.321c2.246,2.319,3.266,4.974,2.278,5.931
				c-0.988,0.957-3.609-0.148-5.855-2.466c-2.246-2.319-3.266-4.974-2.278-5.931C419.425,82.898,422.046,84.002,424.292,86.321z"/>
			<path style="fill-rule:evenodd;clip-rule:evenodd;fill:#688CAD;" d="M411.966,120.187c2.6,2.685,3.781,5.759,2.638,6.866
				c-1.143,1.108-4.178-0.171-6.779-2.856c-2.6-2.685-3.781-5.759-2.638-6.866C406.331,116.224,409.366,117.502,411.966,120.187z"/>
			<path style="fill-rule:evenodd;clip-rule:evenodd;fill:#688CAD;" d="M469.247,82.187c1.944,2.007,2.826,4.305,1.972,5.133
				c-0.855,0.828-3.123-0.128-5.067-2.135c-1.944-2.007-2.826-4.305-1.972-5.133C465.035,79.224,467.304,80.179,469.247,82.187z"/>
			<path style="fill-rule:evenodd;clip-rule:evenodd;fill:#688CAD;" d="M515.43,111.156c1.69,1.745,2.457,3.742,1.714,4.462
				c-0.743,0.72-2.715-0.111-4.405-1.855c-1.69-1.745-2.457-3.742-1.714-4.462C511.768,108.581,513.74,109.412,515.43,111.156z"/>
		</g>
		<path style="fill-rule:evenodd;clip-rule:evenodd;fill:#17232E;" d="M750.12,441.241
			c-160.555-13.326-275.731,25.353-321.528,23.513c-25.754-1.035-180.328-49.824-428.713-37.454v72.781H750.12V441.241z"/>
		<g>
			<path style="fill-rule:evenodd;clip-rule:evenodd;fill:#486E91;" d="M523.729,246.673l-5.258-6.147l8.661-0.628l-11.092-2.52
				c-1.793-0.407-5.41,0.287-11.124,2.155c-6.399,1.715-13.321,4.351-15.358,5.633c-3.811,2.398,11.169,5.49,11.169,5.49
				S522.919,252.993,523.729,246.673z"/>
			<path style="fill-rule:evenodd;clip-rule:evenodd;fill:#9DC5EA;" d="M502.071,243.178l14.947-0.858
				c1.003,0.958,2.081,2.082,2.925,3.134l-11.807-0.626C506.043,244.717,503.415,244.083,502.071,243.178z"/>
			<path style="fill-rule:evenodd;clip-rule:evenodd;fill:#486E91;" d="M523.724,246.667c-4.467-0.306-9.061-0.579-13.428-0.804
				c-8.767-0.453-16.628-0.719-20.724-0.702h-0.001h-0.005c0.234-0.147,0.533-0.311,0.886-0.49c4.295,0.02,11.692,0.28,19.869,0.702
				c4.219,0.218,8.643,0.478,12.955,0.771L523.724,246.667z"/>
			<path style="fill-rule:evenodd;clip-rule:evenodd;fill:#486E91;" d="M534.782,247.325c0.109,0.081,0.131,0.236,0.05,0.344
				c-0.081,0.109-0.236,0.131-0.344,0.05l-0.243-0.182c-1.722-1.286-3.267-2.44-4.4-2.51l-0.007,0v0
				c-7.086-0.625-14.462-1.228-21.824-1.666c-7.378-0.439-14.757-0.715-21.842-0.686c-0.136,0.001-0.246-0.109-0.247-0.244
				c0-0.136,0.109-0.246,0.245-0.246c7.106-0.029,14.494,0.246,21.873,0.686c7.395,0.44,14.767,1.042,21.837,1.666v0.001
				c1.282,0.083,2.879,1.276,4.659,2.606L534.782,247.325z"/>
			<path style="fill-rule:evenodd;clip-rule:evenodd;fill:#486E91;" d="M528.374,246.906c0.047,0.127-0.019,0.269-0.146,0.316
				c-0.127,0.047-0.269-0.019-0.315-0.146l-0.896-2.436c-0.047-0.128,0.019-0.269,0.146-0.316c0.127-0.047,0.269,0.019,0.315,0.146
				L528.374,246.906z"/>
			<path style="fill-rule:evenodd;clip-rule:evenodd;fill:#486E91;" d="M545.254,255.32c1.583,0,1.959-1.126,0.731-2.042
				l-5.679-4.236c-1.85-1.38-4.407-1.442-5.67-1.52l-0.781-0.069h0c-15.323-1.338-36.535-2.319-44.296-2.287
				c-0.96-0.004-1.761,0.004-2.371,0.025c0.128,0.552,0.451,1.216,0.914,1.937c0.252,0.002,0.528,0.005,0.823,0.009
				c1.925,2.998,6.262,6.992,9.14,8.182H545.254z"/>
			<path style="fill-rule:evenodd;clip-rule:evenodd;fill:#486E91;" d="M546.328,255.061c0.19-0.124,0.312-0.286,0.361-0.47
				c-17.372-1.095-34.95-1.44-52.356-1.657c0.055,0.039,0.174,0.148,0.24,0.194C511.653,253.348,529.281,253.999,546.328,255.061z"
				/>
			<path style="fill-rule:evenodd;clip-rule:evenodd;fill:#486E91;" d="M488.92,247.133c14.02,0.08,34.522,1.184,48.519,2.169
				l0.287,0.514c-14.09-0.996-34.633-2.443-48.746-2.524L488.92,247.133z"/>
			<path style="fill-rule:evenodd;clip-rule:evenodd;fill:#486E91;" d="M520.226,248.226c3.388,0.205,13.719,0.83,17.213,1.076
				l1.74,1.651l-17.489-1.317L520.226,248.226z"/>
			<path style="fill-rule:evenodd;clip-rule:evenodd;fill:#486E91;" d="M507.661,248.339l3.666,0.163
				c0.247,0.011,0.449,0.222,0.449,0.47v0c0,0.248-0.202,0.441-0.449,0.43l-3.666-0.163c-0.247-0.011-0.45-0.223-0.45-0.47v0
				C507.211,248.521,507.414,248.327,507.661,248.339z"/>
			<path style="fill-rule:evenodd;clip-rule:evenodd;fill:#486E91;" d="M500.563,248.058l3.666,0.141
				c0.247,0.009,0.45,0.22,0.45,0.467v0.001c0,0.247-0.202,0.442-0.45,0.433l-3.666-0.141c-0.247-0.01-0.45-0.22-0.45-0.468v-0.001
				C500.114,248.243,500.316,248.049,500.563,248.058z"/>
			<path style="fill-rule:evenodd;clip-rule:evenodd;fill:#486E91;" d="M493.695,247.959l3.665,0.06
				c0.247,0.004,0.45,0.21,0.45,0.457v0.001c0,0.248-0.202,0.447-0.45,0.443l-3.665-0.059c-0.248-0.004-0.45-0.21-0.45-0.458v0
				C493.245,248.154,493.447,247.955,493.695,247.959z"/>
			
				<rect x="529.383" y="247.948" transform="matrix(0.7476 -0.6642 0.6642 0.7476 -32.1181 414.6649)" style="fill-rule:evenodd;clip-rule:evenodd;fill:#486E91;" width="0.232" height="3.282"/>
			<polygon style="fill-rule:evenodd;clip-rule:evenodd;fill:#486E91;" points="527.131,239.898 531.594,234.704 528.351,234.751 
				523.476,240.163 			"/>
			<path style="fill-rule:evenodd;clip-rule:evenodd;fill:#486E91;" d="M518.87,240.992l-0.397-0.464l-21.886,1.624
				c-0.577,0.207-1.136,0.414-1.671,0.617L518.87,240.992L518.87,240.992z M520.337,240.39l0.381-0.028v-0.001L520.337,240.39z"/>
			<path style="fill-rule:evenodd;clip-rule:evenodd;fill:#486E91;" d="M488.64,245.105c0.047,0.128-0.019,0.269-0.146,0.316
				c-0.127,0.047-0.269-0.019-0.316-0.146l-1.015-2.761c-0.047-0.128,0.019-0.269,0.146-0.316c0.128-0.047,0.269,0.019,0.316,0.146
				L488.64,245.105z"/>
			<path style="fill-rule:evenodd;clip-rule:evenodd;fill:#688CAD;" d="M495.972,244.93c0.047,0.127-0.019,0.269-0.146,0.316
				c-0.128,0.047-0.269-0.019-0.316-0.146l-0.826-2.245c-0.047-0.127,0.019-0.269,0.146-0.316c0.128-0.047,0.269,0.019,0.316,0.146
				L495.972,244.93z"/>
			<path style="fill-rule:evenodd;clip-rule:evenodd;fill:#486E91;" d="M504.103,245.24c0.047,0.128-0.019,0.269-0.146,0.316
				c-0.128,0.047-0.269-0.019-0.316-0.146l-0.913-2.483c-0.047-0.128,0.019-0.269,0.146-0.316c0.127-0.047,0.269,0.019,0.316,0.146
				L504.103,245.24z"/>
			<path style="fill-rule:evenodd;clip-rule:evenodd;fill:#486E91;" d="M512.146,245.7c0.047,0.128-0.019,0.269-0.146,0.316
				c-0.127,0.047-0.269-0.019-0.316-0.146l-0.913-2.483c-0.047-0.128,0.019-0.269,0.146-0.316c0.128-0.047,0.269,0.019,0.316,0.146
				L512.146,245.7z"/>
			<path style="fill-rule:evenodd;clip-rule:evenodd;fill:#486E91;" d="M520.443,246.104c0.047,0.128-0.019,0.269-0.146,0.316
				c-0.128,0.047-0.269-0.019-0.316-0.146l-0.84-2.284c-0.047-0.128,0.019-0.269,0.146-0.316c0.127-0.047,0.269,0.019,0.315,0.146
				L520.443,246.104z"/>
			<path style="fill-rule:evenodd;clip-rule:evenodd;fill:#9DC5EA;" d="M509.551,238.926l-8.149,2.401l13.063-1.262
				C513.247,239.013,510.742,238.575,509.551,238.926z"/>
			<path style="fill-rule:evenodd;clip-rule:evenodd;fill:#486E91;" d="M516.403,239.828c0.21,0,0.382-0.171,0.382-0.382
				c0-0.21-0.171-0.382-0.382-0.382c-0.21,0-0.381,0.171-0.381,0.382C516.022,239.657,516.193,239.828,516.403,239.828z"/>
			<polygon style="fill-rule:evenodd;clip-rule:evenodd;fill:#486E91;" points="528.535,235.86 531.581,232.316 530.474,232.332 
				527.147,236.024 			"/>
			<path style="fill-rule:evenodd;clip-rule:evenodd;fill:#486E91;" d="M530.525,230.959h1.943c0.227,0,0.412,0.185,0.412,0.412
				v0.56c0,0.227-0.185,0.412-0.412,0.412h-1.943c-0.227,0-0.412-0.185-0.412-0.412v-0.56
				C530.113,231.144,530.298,230.959,530.525,230.959z"/>
			<rect x="530.113" y="231.476" style="fill-rule:evenodd;clip-rule:evenodd;fill:#486E91;" width="2.767" height="0.349"/>
			<path style="fill-rule:evenodd;clip-rule:evenodd;fill:#486E91;" d="M494.743,245.239c-2.069-0.053-3.832-0.078-5.186-0.072
				c-0.96-0.004-1.761,0.004-2.371,0.025c0.128,0.552,0.451,1.216,0.914,1.937c0.252,0.002,0.528,0.005,0.823,0.009
				c1.925,2.998,6.262,6.992,9.14,8.182h7.545c-2.878-1.189-7.214-5.184-9.14-8.182c-0.295-0.004-0.57-0.007-0.823-0.009
				C495.196,246.428,494.878,245.782,494.743,245.239z"/>
			<path style="fill-rule:evenodd;clip-rule:evenodd;fill:#486E91;" d="M493.695,247.959l3.382,0.055
				c0.19,0.254,0.392,0.512,0.606,0.773c-0.082,0.083-0.196,0.134-0.323,0.132l-3.665-0.059c-0.247-0.004-0.45-0.21-0.45-0.458v0
				C493.245,248.154,493.448,247.955,493.695,247.959z"/>
			<path style="fill-rule:evenodd;clip-rule:evenodd;fill:#486E91;" d="M488.92,247.133c2.377,0.014,4.939,0.057,7.625,0.123
				c0.04,0.062,0.082,0.124,0.124,0.186c-2.691-0.083-5.26-0.136-7.646-0.15c-0.034-0.052-0.068-0.103-0.1-0.154h-0.001
				L488.92,247.133z"/>
			<path style="fill-rule:evenodd;clip-rule:evenodd;fill:#486E91;" d="M502.01,253.04c-2.562-0.04-5.121-0.074-7.677-0.106h0
				c0.023,0.016,0.057,0.045,0.095,0.077l0.004,0.004l0.142,0.114c2.559,0.033,5.129,0.076,7.708,0.128
				C502.192,253.185,502.102,253.113,502.01,253.04z"/>
		</g>
		<path style="fill-rule:evenodd;clip-rule:evenodd;fill:#93DBCE;" d="M676.782,279.803c-0.135,0.273-0.246,0.56-0.333,0.859
			c-0.101-0.026-0.203-0.05-0.306-0.072C676.379,280.344,676.593,280.081,676.782,279.803z"/>
		<polygon style="fill-rule:evenodd;clip-rule:evenodd;fill:#93DBCE;" points="677.211,279.083 677.18,279.128 677.201,279.085 		
			"/>
		<path style="fill-rule:evenodd;clip-rule:evenodd;fill:#93DBCE;" d="M680.998,276.747c-0.071,0.012-0.143,0.026-0.213,0.041
			l0.061-0.087C680.896,276.717,680.947,276.733,680.998,276.747z"/>
		<g>
			<g>
				<path style="fill-rule:evenodd;clip-rule:evenodd;fill:#17232E;" d="M295.017,447.464c4.713,0.523,16.933,1.458,16.933-1.274
					c0-2.058-1.708-3.432-3.742-3.742c-5.114-1.485-9.882-1.932-14.599-2.226c0,1.89,0,3.779,0,5.669
					C293.608,446.701,294.211,447.375,295.017,447.464z"/>
				<path style="fill-rule:evenodd;clip-rule:evenodd;fill:#17232E;" d="M297.453,369.95c0.465,8.382-7.337,31.139-9.642,40.312
					c-0.749,4.223-9.416,2.818-8.693-2.339c2.385-17.001-1.46-31.352,5.401-44.034C288.109,364.233,293.863,369.606,297.453,369.95z
					"/>
				<path style="fill-rule:evenodd;clip-rule:evenodd;fill:#17232E;" d="M292.455,371.231c-1.042,4.756-2.563,6.375-2.249,11.619
					c0.547,9.125,2.165,17.915,2.77,23.685c0.447,4.266,7.482,7.235,8.464,2.12c2.577-13.412,2.423-23.026,2.294-36.822
					C299.975,371.632,296.214,371.431,292.455,371.231z"/>
				<path style="fill-rule:evenodd;clip-rule:evenodd;fill:#17232E;" d="M301.297,441.394c-3.234-0.728-5.449,3.82-7.688,2.169
					c-0.924-19.447-1.142-28.375,0.341-36.402c1.154-6.243,8.914-6.892,8.682-0.028
					C302.451,412.488,301.771,436.465,301.297,441.394z"/>
				<path style="fill-rule:evenodd;clip-rule:evenodd;fill:#17232E;" d="M298.974,335.082c5.949-3.192,17.628-8.485,22.849-11.28
					c4.093-1.022,4.84,3.152,2.276,5.815c-4.429,4.6-16.466,12.016-21.72,14.373C296.129,346.793,293.269,338.142,298.974,335.082z"
					/>
				<path style="fill-rule:evenodd;clip-rule:evenodd;fill:#17232E;" d="M303.586,316.185c-2.021,0.668-3.498,2.601-3.111,3.16
					c0.518,0.746,1.013-0.724,3.598-1.541c0.833-0.264,1.869-0.071,2.754,0.222c-1.285,0.879-2.151,1.174-2.096,1.56
					c0.246,1.723,7.504-2.227,6.115-5.186c-1.804-3.844-11.129-1.564-10.441,0.318c0.166,0.454,1.45-0.552,3.049-0.416
					c-2.216,0.485-4.404,2.014-3.722,3.013C300.126,317.893,301.279,315.845,303.586,316.185z"/>
				<path style="fill-rule:evenodd;clip-rule:evenodd;fill:#17232E;" d="M311.317,313.929c4.237,1.878,12.001,7.349,13.921,9.507
					c2.803,3.152-1.819,7.889-5.071,5.202c-2.575-2.127-9.306-6.543-12.994-9.114C307.705,318.382,309.541,315.567,311.317,313.929z
					"/>
				<path style="fill-rule:evenodd;clip-rule:evenodd;fill:#17232E;" d="M277.877,445.221c4.706,0.447,16.908,1.345,16.908-1.245
					c0-2.058-1.708-3.432-3.742-3.742c-5.206-1.307-9.987-1.908-14.6-2.226c0,1.879,0,3.759,0,5.638
					C276.443,444.465,277.06,445.144,277.877,445.221z"/>
				<path style="fill-rule:evenodd;clip-rule:evenodd;fill:#17232E;" d="M283.395,439.694c-3.15-1.033-5.761,3.302-7.833,1.445
					c0.933-19.447,1.378-24.066,3.721-34.293c1.418-6.188,9.362-3.983,8.473,2.827C285.982,423.258,284.337,434.832,283.395,439.694
					z"/>
				<path style="fill-rule:evenodd;clip-rule:evenodd;fill:#17232E;" d="M277.95,337.261c3.347-4.237,23.044-3.918,25.416-1.342
					c2.112,2.294-0.728,17.328,1.839,37.317c0.286,2.225-8.153,4.974-9.685,1.87c-1.024,4.254-17.124,1.294-15.872-3.566
					c2.066-8.017,0.735-17.038,0.355-21.602C279.622,345.377,276.022,339.701,277.95,337.261z"/>
				<path style="fill-rule:evenodd;clip-rule:evenodd;fill:#17232E;" d="M276.772,337.677c-5.11,4.648-14.88,14.366-17.349,19.596
					c-1.801,3.815,2.103,5.419,5.284,2.648c4.011-3.493,11.881-7.869,15.59-13.909C283.883,340.174,281.549,333.332,276.772,337.677
					z"/>
				<path style="fill-rule:evenodd;clip-rule:evenodd;fill:#17232E;" d="M291.182,324.593L291.182,324.593
					c2.083,0,3.786,1.322,3.786,2.939v8.377c-0.638,0.953-0.648,2.793-1.304,4.164c-1.564-1.036-4.648-3.942-6.271-5.24l0.003-7.302
					C287.397,325.915,289.1,324.593,291.182,324.593z"/>
				<path style="fill-rule:evenodd;clip-rule:evenodd;fill:#17232E;" d="M294.187,308.312c-8.452-0.355-10.015,8.521-9.539,15.666
					c0.203,3.042,4.473,8.158,9.74,8.352c3.361,0.124,6.853-4.625,7.823-9.642C303.462,316.213,301.632,308.792,294.187,308.312z"/>
				<path style="fill-rule:evenodd;clip-rule:evenodd;fill:#17232E;" d="M297.555,312.49c3.424,3.419,5.043,6.09,4.544,10.628
					C303.056,320.85,305.116,311.16,297.555,312.49z"/>
				<path style="fill-rule:evenodd;clip-rule:evenodd;fill:#17232E;" d="M291.098,309.431c-1.184,6.157-3.477,10.688-6.522,12.589
					C282.991,317.755,283.344,307.121,291.098,309.431z"/>
				<path style="fill-rule:evenodd;clip-rule:evenodd;fill:#17232E;" d="M286.273,312.397c3.271-7.029,10.602-5.913,15.021-2.042
					c1.453,1.272,2.745,4.216,4.56,3.357C306.463,317.501,301.373,320.152,286.273,312.397z"/>
				<path style="fill-rule:evenodd;clip-rule:evenodd;fill:#17232E;" d="M279.207,368.229c2.125-0.137,4.218,1.102,4.068,1.766
					c-0.2,0.886-1.211-0.292-3.913-0.082c-0.871,0.067-1.759,0.634-2.47,1.237c1.52,0.334,2.434,0.283,2.527,0.662
					c0.417,1.69-7.791,0.744-7.611-2.519c0.234-4.24,8.88-5.501,8.948-3.499c0.016,0.483-0.971,0.065-2.131,0.64
					c2.236-0.38,3.972,1.107,3.388,1.721C281.605,368.582,280.814,367.31,279.207,368.229z"/>
				<path style="fill-rule:evenodd;clip-rule:evenodd;fill:#17232E;" d="M271.079,371.211c-3.719-2.765-10.205-8.008-11.602-10.537
					c-2.039-3.692,3.513-7.294,6.093-3.957c2.043,2.642,7.754,6.629,10.785,9.949C275.583,367.664,273.172,370.004,271.079,371.211z
					"/>
			</g>
			<path style="fill-rule:evenodd;clip-rule:evenodd;fill:#17232E;" d="M298.124,338.705L298.124,338.705l0.11,0.004v0l0.109,0.007
				v0l0.109,0.009v0l0.107,0.012v0l0.107,0.015v0l0.106,0.018l0,0l0.105,0.02l0,0l0.104,0.023v0l0.103,0.025l0.102,0.027v0
				l0.101,0.03v0l0.1,0.033v0l0.099,0.035v0l0.098,0.037l0.097,0.039v0l0.096,0.042l0.094,0.044l0,0l0.093,0.047l0.092,0.048
				l0.09,0.051v0l0.089,0.052v0l0.088,0.055l0.086,0.057l0.085,0.059l0.083,0.061h0l0.082,0.063l0.08,0.065h0l0.078,0.067
				l0.077,0.068l0.076,0.07l0,0l0.074,0.072l0,0l0.072,0.074l0,0l0.07,0.075h0l0.068,0.077l0.067,0.079v0l0.065,0.08l0.063,0.082
				l0,0l0.061,0.083h0l0.059,0.085l0.057,0.086h0l0.055,0.088h0l0.053,0.089v0l0.051,0.09h0l0.048,0.092l0,0l0.046,0.093l0,0
				l0.044,0.094l0,0l0.042,0.095h0l0.04,0.097l0.037,0.098l0,0l0.035,0.099l0,0l0.033,0.1l0,0l0.03,0.101l0,0l0.027,0.102l0,0
				l0.025,0.103h0l0.023,0.104h0l0.02,0.105h0l0.017,0.106h0l0.015,0.107h0l0.012,0.108h0l0.009,0.108h0
				c0.009,0.109,0.012,0.218,0.012,0.329v0.293v0.018v5.275l0,0h0.966h0.528h0.496l0.025,0l0.025,0.001l0.024,0.002l0.025,0.002
				l0.024,0.003l0.024,0.004l0.024,0.004l0.024,0.005l0.023,0.005l0.023,0.006l0.023,0.006l0.023,0.007l0.022,0.007h0l0.022,0.008
				l0.022,0.008l0.022,0.009l0.022,0.009l0.021,0.01l0.021,0.01l0.021,0.011l0.02,0.011v0l0.02,0.012h0l0.02,0.012v0l0.019,0.013
				l0.019,0.013l0.019,0.014h0l0.018,0.014h0l0.018,0.014l0.018,0.015l0.017,0.015l0,0l0.017,0.016l0,0l0.016,0.016v0l0.016,0.016
				l0.016,0.017l0.015,0.017l0,0l0.015,0.017l0,0l0.014,0.018h0l0.014,0.018l0.014,0.018v0l0.013,0.019l0,0l0.013,0.019v0
				l0.012,0.02l0.012,0.02v0l0.011,0.02h0l0.01,0.02l0,0l0.01,0.021l0,0l0.01,0.021l0,0l0.009,0.021l0,0l0.009,0.022l0,0
				l0.008,0.022l0,0l0.008,0.022h0l0.007,0.022h0l0.006,0.023l0,0l0.006,0.023l0,0l0.006,0.023l0,0l0.005,0.023h0l0.004,0.023l0,0
				l0.004,0.023l0,0l0.003,0.024l0,0l0.002,0.024h0l0.002,0.024l0,0l0.001,0.024l0,0l0.001,0.025l0,0v0.024l0,0v4.51l0,0.025v11.403
				c0,0.531-0.434,0.966-0.966,0.966h-1.989v0.457c0,1.957-1.327,3.618-3.125,4.129v4.218c0,0.946-0.773,1.719-1.719,1.719h-0.543
				h-1.493h-12.502h-1.493h-0.543c-0.946,0-1.719-0.774-1.719-1.719v-4.218c-1.799-0.511-3.125-2.173-3.125-4.129v-0.457h-1.99
				c-0.531,0-0.965-0.435-0.965-0.966v-11.428v-4.51v0l0-0.024v0l0.001-0.025v0l0.002-0.024v0l0.002-0.024l0,0l0.003-0.024
				l0.003-0.024l0.004-0.024l0.004-0.023l0,0l0.005-0.024l0.006-0.023v0l0.006-0.023v0l0.007-0.023l0,0l0.007-0.022l0.008-0.022
				l0.008-0.022l0.009-0.022l0.009-0.021v0l0.01-0.021l0.01-0.021v0l0.011-0.02l0,0l0.023-0.04h0l0.012-0.02h0l0.013-0.019
				l0.014-0.019l0.013-0.018h0l0.014-0.018l0.014-0.018l0.015-0.018l0.015-0.017h0l0.016-0.017h0l0.016-0.017h0l0.016-0.016v0
				l0.017-0.016l0.017-0.015h0l0.017-0.015h0l0.018-0.014l0.018-0.014l0.019-0.014h0l0.019-0.013h0l0.019-0.013h0l0.02-0.012
				l0.02-0.012l0,0l0.02-0.011h0l0.02-0.011h0l0.021-0.01l0,0l0.021-0.01h0l0.021-0.009h0l0.022-0.009h0l0.022-0.008h0l0.022-0.008
				l0.022-0.007h0l0.023-0.007h0l0.023-0.006h0l0.023-0.006h0l0.023-0.005h0l0.024-0.005h0l0.024-0.004h0l0.024-0.004h0l0.024-0.003
				h0l0.024-0.002h0l0.024-0.002h0l0.025-0.001l0,0l0.025,0h0h0.496h0.528h0.966v-5.293v-0.293v0l0.001-0.11v0l0.004-0.109v0
				l0.007-0.109l0.01-0.108l0,0l0.012-0.108l0,0l0.015-0.107l0.018-0.106v0l0.02-0.105l0.023-0.104v0l0.026-0.103v0l0.027-0.102
				l0.03-0.101l0.033-0.1v0l0.035-0.099l0.037-0.098v0l0.04-0.096v0l0.042-0.096l0.044-0.094l0.047-0.093l0.049-0.092l0.051-0.091
				l0.053-0.089l0.055-0.088l0.057-0.086l0,0l0.059-0.085l0.061-0.083l0.063-0.082l0,0l0.065-0.08h0l0.066-0.079l0,0l0.068-0.077v0
				l0.07-0.075l0.072-0.074l0.074-0.072l0.075-0.07h0l0.077-0.068h0l0.078-0.067l0.08-0.065h0l0.082-0.063v0l0.083-0.061h0
				l0.085-0.059h0l0.086-0.057h0l0.088-0.055l0,0l0.089-0.052l0,0l0.09-0.051h0l0.092-0.048l0,0l0.093-0.046h0l0.094-0.044v0
				l0.095-0.042l0,0l0.096-0.039h0l0.098-0.037v0l0.099-0.035l0,0l0.1-0.033l0,0l0.101-0.03l0,0l0.102-0.027h0l0.103-0.025v0
				l0.104-0.023l0,0l0.105-0.02h0l0.105-0.018l0,0l0.106-0.015l0,0l0.107-0.012l0,0l0.108-0.009l0,0l0.109-0.007l0,0l0.109-0.004
				l0,0l0.092-0.001h-7.228v-3.005v-3.005h8.343h1.493h12.502h1.493h8.343v3.005v3.005h-7.228L298.124,338.705z"/>
			<g>
				<polygon style="fill-rule:evenodd;clip-rule:evenodd;fill:#17232E;" points="234.119,430.237 235.644,430.237 229.712,414.524 
					228.188,414.524 				"/>
				<path style="fill-rule:evenodd;clip-rule:evenodd;fill:#17232E;" d="M235.576,413.085h-6.924c-0.734,0-1.334,0.6-1.334,1.334v0
					c0,0.733,0.6,1.334,1.334,1.334h6.924c0.734,0,1.334-0.6,1.334-1.334v0C236.91,413.685,236.31,413.085,235.576,413.085z"/>
				<g>
					<g>
						<rect x="284.974" y="405.232" style="fill-rule:evenodd;clip-rule:evenodd;fill:#17232E;" width="0.502" height="50.32"/>
						<rect x="281.057" y="405.232" style="fill-rule:evenodd;clip-rule:evenodd;fill:#17232E;" width="0.502" height="50.32"/>
					</g>
					<g>
						
							<rect x="284.856" y="404.563" transform="matrix(0.9397 -0.342 0.342 0.9397 -129.7832 123.4325)" style="fill-rule:evenodd;clip-rule:evenodd;fill:#17232E;" width="0.502" height="50.32"/>
						
							<rect x="281.175" y="405.902" transform="matrix(0.9398 -0.3417 0.3417 0.9398 -130.3478 122.1002)" style="fill-rule:evenodd;clip-rule:evenodd;fill:#17232E;" width="0.502" height="50.32"/>
					</g>
					<g>
						
							<rect x="284.516" y="403.973" transform="matrix(0.7662 -0.6426 0.6426 0.7662 -209.1848 283.3274)" style="fill-rule:evenodd;clip-rule:evenodd;fill:#17232E;" width="0.502" height="50.32"/>
						
							<rect x="281.515" y="406.491" transform="matrix(0.7661 -0.6427 0.6427 0.7661 -211.5235 282.0509)" style="fill-rule:evenodd;clip-rule:evenodd;fill:#17232E;" width="0.502" height="50.32"/>
					</g>
					<g>
						
							<rect x="283.995" y="403.536" transform="matrix(0.5 -0.866 0.866 0.5 -229.1394 460.5031)" style="fill-rule:evenodd;clip-rule:evenodd;fill:#17232E;" width="0.502" height="50.32"/>
						
							<rect x="282.036" y="406.928" transform="matrix(0.5002 -0.8659 0.8659 0.5002 -233.0613 460.4142)" style="fill-rule:evenodd;clip-rule:evenodd;fill:#17232E;" width="0.502" height="50.32"/>
					</g>
					<g>
						
							<rect x="283.356" y="403.303" transform="matrix(0.1733 -0.9849 0.9849 0.1733 -187.5173 633.5388)" style="fill-rule:evenodd;clip-rule:evenodd;fill:#17232E;" width="0.502" height="50.32"/>
						
							<rect x="282.675" y="407.161" transform="matrix(0.1738 -0.9848 0.9848 0.1738 -191.9847 635.8116)" style="fill-rule:evenodd;clip-rule:evenodd;fill:#17232E;" width="0.502" height="50.32"/>
					</g>
					<g>
						
							<rect x="257.767" y="428.212" transform="matrix(0.9848 -0.1738 0.1738 0.9848 -70.1555 55.6882)" style="fill-rule:evenodd;clip-rule:evenodd;fill:#17232E;" width="50.32" height="0.502"/>
						
							<rect x="258.447" y="432.07" transform="matrix(0.9849 -0.1732 0.1732 0.9849 -70.5811 55.6445)" style="fill-rule:evenodd;clip-rule:evenodd;fill:#17232E;" width="50.32" height="0.502"/>
					</g>
					<g>
						
							<rect x="257.127" y="428.445" transform="matrix(0.8661 -0.4999 0.4999 0.8661 -176.5038 198.5284)" style="fill-rule:evenodd;clip-rule:evenodd;fill:#17232E;" width="50.32" height="0.502"/>
						
							<rect x="259.086" y="431.837" transform="matrix(0.866 -0.5 0.5 0.866 -177.9666 200.0201)" style="fill-rule:evenodd;clip-rule:evenodd;fill:#17232E;" width="50.32" height="0.502"/>
					</g>
					<g>
						
							<rect x="256.606" y="428.882" transform="matrix(0.6427 -0.7661 0.7661 0.6427 -228.0911 369.1913)" style="fill-rule:evenodd;clip-rule:evenodd;fill:#17232E;" width="50.32" height="0.502"/>
						
							<rect x="259.607" y="431.4" transform="matrix(0.6426 -0.7662 0.7662 0.6426 -228.9555 372.4554)" style="fill-rule:evenodd;clip-rule:evenodd;fill:#17232E;" width="50.32" height="0.503"/>
					</g>
					<g>
						
							<rect x="256.266" y="429.471" transform="matrix(0.342 -0.9397 0.9397 0.342 -218.6353 547.1971)" style="fill-rule:evenodd;clip-rule:evenodd;fill:#17232E;" width="50.32" height="0.502"/>
						
							<rect x="259.947" y="430.811" transform="matrix(0.342 -0.9397 0.9397 0.342 -217.4725 551.5376)" style="fill-rule:evenodd;clip-rule:evenodd;fill:#17232E;" width="50.32" height="0.502"/>
					</g>
				</g>
				<g>
					<g>
						<rect x="200.636" y="405.232" style="fill-rule:evenodd;clip-rule:evenodd;fill:#17232E;" width="0.502" height="50.32"/>
						<rect x="196.719" y="405.232" style="fill-rule:evenodd;clip-rule:evenodd;fill:#17232E;" width="0.502" height="50.32"/>
					</g>
					<g>
						
							<rect x="200.518" y="404.563" transform="matrix(0.9397 -0.342 0.342 0.9397 -134.8697 94.5863)" style="fill-rule:evenodd;clip-rule:evenodd;fill:#17232E;" width="0.502" height="50.32"/>
						
							<rect x="196.837" y="405.902" transform="matrix(0.9398 -0.3417 0.3417 0.9398 -135.4235 93.2837)" style="fill-rule:evenodd;clip-rule:evenodd;fill:#17232E;" width="0.502" height="50.32"/>
					</g>
					<g>
						
							<rect x="200.178" y="403.973" transform="matrix(0.7659 -0.6429 0.6429 0.7659 -228.9802 229.2959)" style="fill-rule:evenodd;clip-rule:evenodd;fill:#17232E;" width="0.502" height="50.32"/>
						
							<rect x="197.177" y="406.491" transform="matrix(0.7659 -0.643 0.643 0.7659 -231.3273 228.0109)" style="fill-rule:evenodd;clip-rule:evenodd;fill:#17232E;" width="0.502" height="50.32"/>
					</g>
					<g>
						
							<rect x="199.657" y="403.536" transform="matrix(0.5 -0.866 0.866 0.5 -271.307 387.4651)" style="fill-rule:evenodd;clip-rule:evenodd;fill:#17232E;" width="0.502" height="50.32"/>
						
							<rect x="197.698" y="406.928" transform="matrix(0.5002 -0.8659 0.8659 0.5002 -275.2164 387.3833)" style="fill-rule:evenodd;clip-rule:evenodd;fill:#17232E;" width="0.502" height="50.32"/>
					</g>
					<g>
						
							<rect x="199.018" y="403.303" transform="matrix(0.1739 -0.9848 0.9848 0.1739 -257.3134 550.2079)" style="fill-rule:evenodd;clip-rule:evenodd;fill:#17232E;" width="0.502" height="50.32"/>
						
							<rect x="198.337" y="407.161" transform="matrix(0.1732 -0.9849 0.9849 0.1732 -261.595 553.0276)" style="fill-rule:evenodd;clip-rule:evenodd;fill:#17232E;" width="0.502" height="50.32"/>
					</g>
					<g>
						
							<rect x="173.429" y="428.212" transform="matrix(0.9849 -0.1732 0.1732 0.9849 -71.2109 40.8727)" style="fill-rule:evenodd;clip-rule:evenodd;fill:#17232E;" width="50.32" height="0.502"/>
						
							<rect x="174.109" y="432.07" transform="matrix(0.9848 -0.1738 0.1738 0.9848 -72.0854 41.199)" style="fill-rule:evenodd;clip-rule:evenodd;fill:#17232E;" width="50.32" height="0.502"/>
					</g>
					<g>
						
							<rect x="172.789" y="428.445" transform="matrix(0.8661 -0.4999 0.4999 0.8661 -187.7984 156.3673)" style="fill-rule:evenodd;clip-rule:evenodd;fill:#17232E;" width="50.32" height="0.502"/>
						
							<rect x="174.748" y="431.837" transform="matrix(0.866 -0.5 0.5 0.866 -189.2665 157.8499)" style="fill-rule:evenodd;clip-rule:evenodd;fill:#17232E;" width="50.32" height="0.502"/>
					</g>
					<g>
						
							<rect x="172.268" y="428.882" transform="matrix(0.643 -0.7659 0.7659 0.643 -258.1767 304.4039)" style="fill-rule:evenodd;clip-rule:evenodd;fill:#17232E;" width="50.32" height="0.502"/>
						
							<rect x="175.269" y="431.4" transform="matrix(0.6429 -0.7659 0.7659 0.6429 -259.0496 307.6598)" style="fill-rule:evenodd;clip-rule:evenodd;fill:#17232E;" width="50.32" height="0.502"/>
					</g>
					<g>
						
							<rect x="171.928" y="429.471" transform="matrix(0.342 -0.9397 0.9397 0.342 -274.1271 467.9456)" style="fill-rule:evenodd;clip-rule:evenodd;fill:#17232E;" width="50.32" height="0.502"/>
						
							<rect x="175.609" y="430.811" transform="matrix(0.342 -0.9397 0.9397 0.342 -272.9644 472.2861)" style="fill-rule:evenodd;clip-rule:evenodd;fill:#17232E;" width="50.32" height="0.502"/>
					</g>
				</g>
				<path style="fill-rule:evenodd;clip-rule:evenodd;fill:#17232E;" d="M283.267,406.436c-13.231,0-23.957,10.726-23.957,23.957
					c0,13.231,10.726,23.957,23.957,23.957c13.231,0,23.957-10.726,23.957-23.957C307.223,417.161,296.498,406.436,283.267,406.436
					L283.267,406.436z M282.529,402.385l0.738,0.765l0.738-0.765c1.151,0.03,2.285,0.13,3.398,0.295l0.595,0.884l0.865-0.629
					c1.122,0.228,2.219,0.523,3.288,0.88l0.434,0.978l0.962-0.47c1.062,0.419,2.091,0.901,3.084,1.442l0.257,1.035l1.024-0.294
					c0.972,0.597,1.905,1.253,2.793,1.96l0.073,1.057l1.054-0.111c0.853,0.755,1.66,1.563,2.416,2.416l-0.112,1.054l1.058,0.073
					c0.708,0.888,1.363,1.821,1.96,2.793l-0.294,1.024l1.036,0.257c0.54,0.993,1.022,2.023,1.441,3.084l-0.47,0.963l0.979,0.435
					c0.357,1.068,0.651,2.166,0.879,3.287l-0.629,0.864l0.885,0.597c0.164,1.112,0.264,2.246,0.294,3.397l-0.765,0.738l0.765,0.738
					c-0.03,1.151-0.13,2.285-0.295,3.398l-0.884,0.595l0.629,0.865c-0.227,1.122-0.523,2.219-0.88,3.288l-0.978,0.434l0.47,0.963
					c-0.419,1.061-0.901,2.09-1.442,3.084l-1.035,0.257l0.294,1.024c-0.597,0.972-1.252,1.904-1.96,2.793l-1.058,0.073l0.112,1.055
					c-0.755,0.853-1.562,1.66-2.415,2.415l-1.054-0.112l-0.073,1.059c-0.889,0.708-1.821,1.362-2.793,1.959l-1.024-0.294
					l-0.257,1.037c-0.993,0.54-2.022,1.022-3.084,1.441l-0.963-0.471l-0.435,0.98c-1.069,0.357-2.165,0.652-3.287,0.879
					l-0.864-0.629l-0.596,0.885c-1.112,0.164-2.246,0.264-3.397,0.294l-0.737-0.765l-0.738,0.765
					c-1.151-0.03-2.285-0.13-3.398-0.295l-0.595-0.884l-0.865,0.629c-1.122-0.227-2.219-0.523-3.288-0.88l-0.434-0.978l-0.963,0.47
					c-1.061-0.419-2.091-0.902-3.084-1.442l-0.257-1.035l-1.024,0.294c-0.972-0.597-1.904-1.252-2.793-1.96l-0.073-1.058
					l-1.055,0.112c-0.853-0.755-1.66-1.563-2.415-2.415l0.112-1.054l-1.059-0.073c-0.708-0.889-1.362-1.821-1.96-2.793l0.295-1.024
					l-1.037-0.257c-0.54-0.993-1.022-2.022-1.441-3.084l0.471-0.963l-0.98-0.435c-0.357-1.069-0.651-2.166-0.879-3.287l0.629-0.864
					l-0.885-0.596c-0.165-1.112-0.264-2.246-0.294-3.397l0.765-0.738l-0.765-0.737c0.03-1.151,0.13-2.286,0.294-3.398l0.884-0.595
					l-0.629-0.864c0.228-1.122,0.523-2.219,0.88-3.288l0.978-0.435l-0.471-0.962c0.419-1.062,0.902-2.091,1.442-3.084l1.035-0.257
					l-0.294-1.024c0.597-0.972,1.252-1.904,1.96-2.793l1.059-0.073l-0.112-1.055c0.755-0.853,1.563-1.66,2.416-2.415l1.054,0.112
					l0.073-1.059c0.888-0.708,1.821-1.362,2.792-1.959l1.024,0.294l0.257-1.036c0.993-0.54,2.022-1.022,3.084-1.441l0.963,0.471
					l0.435-0.98c1.068-0.357,2.166-0.651,3.287-0.879l0.865,0.629l0.596-0.885C280.244,402.513,281.378,402.414,282.529,402.385z"/>
				<path style="fill-rule:evenodd;clip-rule:evenodd;fill:#17232E;" d="M198.929,406.436c-13.231,0-23.957,10.726-23.957,23.957
					c0,13.231,10.726,23.957,23.957,23.957s23.957-10.726,23.957-23.957C222.886,417.161,212.16,406.436,198.929,406.436
					L198.929,406.436z M198.191,402.385l0.738,0.765l0.738-0.765c1.151,0.03,2.285,0.13,3.398,0.295l0.595,0.884l0.865-0.629
					c1.122,0.228,2.219,0.523,3.288,0.88l0.434,0.978l0.962-0.47c1.062,0.419,2.091,0.901,3.084,1.442l0.257,1.035l1.024-0.294
					c0.972,0.597,1.905,1.253,2.793,1.96l0.073,1.057l1.054-0.111c0.854,0.755,1.66,1.563,2.416,2.416l-0.112,1.054l1.058,0.073
					c0.708,0.888,1.363,1.821,1.96,2.793l-0.294,1.024l1.036,0.257c0.54,0.993,1.022,2.023,1.441,3.084l-0.47,0.963l0.979,0.435
					c0.357,1.068,0.651,2.166,0.879,3.287l-0.629,0.864l0.885,0.597c0.164,1.112,0.264,2.246,0.294,3.397l-0.765,0.738l0.765,0.738
					c-0.03,1.151-0.13,2.285-0.294,3.398l-0.884,0.595l0.629,0.865c-0.227,1.122-0.523,2.219-0.88,3.288l-0.978,0.434l0.47,0.963
					c-0.419,1.061-0.901,2.09-1.442,3.084l-1.035,0.257l0.294,1.024c-0.597,0.972-1.252,1.904-1.96,2.793l-1.058,0.073l0.112,1.055
					c-0.755,0.853-1.562,1.66-2.415,2.415l-1.054-0.112l-0.073,1.059c-0.889,0.708-1.821,1.362-2.793,1.959l-1.024-0.294
					l-0.257,1.037c-0.993,0.54-2.023,1.022-3.083,1.441l-0.963-0.471l-0.435,0.98c-1.069,0.357-2.165,0.652-3.287,0.879
					l-0.864-0.629l-0.596,0.885c-1.112,0.164-2.246,0.264-3.397,0.294l-0.737-0.765l-0.738,0.765
					c-1.151-0.03-2.285-0.13-3.398-0.295l-0.595-0.884l-0.865,0.629c-1.122-0.227-2.219-0.523-3.288-0.88l-0.434-0.978l-0.963,0.47
					c-1.061-0.419-2.091-0.902-3.084-1.442l-0.257-1.035l-1.024,0.294c-0.972-0.597-1.904-1.252-2.793-1.96l-0.073-1.058
					l-1.055,0.112c-0.853-0.755-1.66-1.563-2.415-2.415l0.112-1.054l-1.059-0.073c-0.708-0.889-1.362-1.821-1.96-2.793l0.295-1.024
					l-1.037-0.257c-0.54-0.993-1.022-2.022-1.441-3.084l0.471-0.963l-0.98-0.435c-0.357-1.069-0.651-2.166-0.879-3.287l0.629-0.864
					l-0.885-0.596c-0.165-1.112-0.264-2.246-0.294-3.397l0.765-0.738l-0.765-0.737c0.03-1.151,0.13-2.286,0.294-3.398l0.884-0.595
					l-0.629-0.864c0.228-1.122,0.523-2.219,0.88-3.288l0.978-0.435l-0.471-0.962c0.419-1.062,0.902-2.091,1.442-3.084l1.036-0.257
					l-0.295-1.024c0.597-0.972,1.252-1.904,1.96-2.793l1.059-0.073l-0.112-1.055c0.755-0.853,1.563-1.66,2.416-2.415l1.054,0.112
					l0.073-1.059c0.888-0.708,1.821-1.362,2.792-1.959l1.024,0.294l0.257-1.036c0.993-0.54,2.023-1.022,3.084-1.441l0.963,0.471
					l0.435-0.98c1.068-0.357,2.166-0.651,3.287-0.879l0.865,0.629l0.596-0.885C195.906,402.513,197.04,402.414,198.191,402.385z"/>
				
					<rect x="276.059" y="405.275" transform="matrix(0.9354 -0.3537 0.3537 0.9354 -129.825 125.7365)" style="fill-rule:evenodd;clip-rule:evenodd;fill:#17232E;" width="6.15" height="25.656"/>
				<polygon style="fill-rule:evenodd;clip-rule:evenodd;fill:#17232E;" points="271.656,369.717 269.999,368.068 262.023,375.744 
					263.681,377.393 				"/>
				<path style="fill-rule:evenodd;clip-rule:evenodd;fill:#17232E;" d="M277.786,367.363l-12.517-0.877
					c-0.107-0.015-0.216-0.023-0.327-0.023c-1.252,0-2.267,1.015-2.267,2.266c0,1.252,1.015,2.267,2.267,2.267h0.008l12.515,0.876
					c0.109,0.016,0.219,0.024,0.332,0.024c1.252,0,2.266-1.015,2.266-2.266c0-1.252-1.014-2.267-2.266-2.267H277.786z"/>
				<polygon style="fill-rule:evenodd;clip-rule:evenodd;fill:#17232E;" points="267.88,391.644 234.619,431.604 232.613,430.199 
					265.828,386.216 268.906,387.747 				"/>
				<polygon style="fill-rule:evenodd;clip-rule:evenodd;fill:#17232E;" points="264.682,383.185 230.004,395.688 198.457,429.864 
					199.439,430.814 230.004,399.099 265.609,385.636 267.087,382.936 				"/>
				<polygon style="fill-rule:evenodd;clip-rule:evenodd;fill:#17232E;" points="236.56,430.158 229.378,385.882 226.421,386.351 
					233.603,430.627 				"/>
				<path style="fill-rule:evenodd;clip-rule:evenodd;fill:#17232E;" d="M234.965,385.566c-0.07,1.903-10.986,2.93-14.428,2.71
					c-3.442-0.22-6.958-4.174-5.859-5.346c1.099-1.172,4.248,0.586,7.763,1.172C225.956,384.687,235.041,383.512,234.965,385.566z"
					/>
				<polygon style="fill-rule:evenodd;clip-rule:evenodd;fill:#17232E;" points="234.999,430.779 198.673,431.551 198.349,429.283 
					234.675,428.511 				"/>
				<polygon style="fill-rule:evenodd;clip-rule:evenodd;fill:#17232E;" points="264.21,374.918 262.023,375.744 275.73,412.403 
					277.917,411.577 				"/>
				<path style="fill-rule:evenodd;clip-rule:evenodd;fill:#17232E;" d="M235.082,437.794c4.077,0,7.402-3.325,7.402-7.402
					c0-4.077-3.325-7.402-7.402-7.402s-7.402,3.325-7.402,7.402C227.68,434.469,231.005,437.794,235.082,437.794z"/>
				<polygon style="fill-rule:evenodd;clip-rule:evenodd;fill:#17232E;" points="235.726,430.237 234.201,430.237 240.132,445.949 
					241.657,445.949 				"/>
				<path style="fill-rule:evenodd;clip-rule:evenodd;fill:#17232E;" d="M246.648,444.12h-6.924c-0.733,0-1.334,0.6-1.334,1.334v0
					c0,0.734,0.6,1.334,1.334,1.334h6.924c0.734,0,1.334-0.6,1.334-1.334v0C247.982,444.72,247.382,444.12,246.648,444.12z"/>
				<path style="fill-rule:evenodd;clip-rule:evenodd;fill:#17232E;" d="M283.267,436.487c3.357,0,6.094-2.738,6.094-6.095
					c0-3.357-2.738-6.095-6.094-6.095c-3.357,0-6.095,2.738-6.095,6.095C277.172,433.749,279.91,436.487,283.267,436.487z"/>
				<path style="fill-rule:evenodd;clip-rule:evenodd;fill:#17232E;" d="M198.929,437.336c3.825,0,6.945-3.12,6.945-6.945
					c0-3.825-3.12-6.944-6.945-6.944c-3.825,0-6.945,3.12-6.945,6.944C191.984,434.217,195.104,437.336,198.929,437.336z"/>
			</g>
		</g>
	</g>
</g>
</svg>
